<svg width="22" height="22" viewBox="0 0 22 22" fill="none" xmlns="http://www.w3.org/2000/svg">
<path d="M9.8518 13.772L9.4688 14.695M9.8518 8.22802L9.4688 7.30502M12.1478 13.772L12.5298 14.696M12.5308 7.30502L12.1478 8.22802M13.7718 9.85202L14.6948 9.46902M13.7718 12.148L14.6948 12.531M16.5978 5.50002C16.8279 5.10151 16.9632 4.65541 16.9934 4.19622C17.0235 3.73703 16.9476 3.27707 16.7715 2.85192C16.5954 2.42677 16.3238 2.04782 15.9779 1.7444C15.6319 1.44098 15.2208 1.22122 14.7763 1.10212C14.3318 0.983013 13.8658 0.967761 13.4145 1.05754C12.9632 1.14732 12.5385 1.33972 12.1735 1.61987C11.8084 1.90001 11.5127 2.26039 11.3091 2.67311C11.1056 3.08584 10.9998 3.53985 10.9998 4.00002C11.0004 3.33382 10.7792 2.68636 10.3712 2.15976C9.9631 1.63315 9.39135 1.25735 8.74609 1.09162C8.10083 0.925895 7.41875 0.979664 6.80743 1.24445C6.1961 1.50924 5.69031 1.96998 5.3698 2.55402C5.10596 3.03426 4.97869 3.57758 5.0018 4.12502M5.0018 4.12502C4.41394 4.27624 3.86822 4.55926 3.40595 4.95264C2.94369 5.34602 2.57702 5.83944 2.33371 6.39553C2.0904 6.95162 1.97684 7.55579 2.00163 8.16228C2.02642 8.76876 2.18891 9.36165 2.4768 9.89602M5.0018 4.12502C5.02218 4.60893 5.15942 5.0807 5.4018 5.50002M16.9978 4.12502C17.5856 4.27624 18.1314 4.55926 18.5936 4.95264C19.0559 5.34602 19.4226 5.83944 19.6659 6.39553C19.9092 6.95162 20.0227 7.55579 19.998 8.16228C19.9732 8.76876 19.8107 9.36165 19.5228 9.89602M18.5048 9.29402C19.364 9.64298 20.0752 10.2796 20.5169 11.0951C20.9585 11.9105 21.1031 12.854 20.9259 13.7643C20.7487 14.6746 20.2608 15.495 19.5455 16.0852C18.8303 16.6754 17.9321 16.9988 17.0048 17M3.0318 16.483C2.91141 17.4007 3.11302 18.3318 3.60225 19.1175C4.09148 19.9033 4.83805 20.495 5.71472 20.7919C6.59139 21.0888 7.5439 21.0725 8.40989 20.7457C9.27588 20.419 10.0018 19.802 10.4638 19C10.6438 18.689 11.3558 18.689 11.5358 19C11.9978 19.8019 12.7236 20.4187 13.5895 20.7454C14.4553 21.0721 15.4077 21.0885 16.2842 20.7918C17.1608 20.495 17.9074 19.9035 18.3967 19.118C18.886 18.3325 19.0879 17.4016 18.9678 16.484M3.4998 9.29102C2.63869 9.63876 1.9254 10.2753 1.48228 11.0914C1.03917 11.9075 0.89383 12.8524 1.0712 13.764C1.24857 14.6756 1.7376 15.497 2.45441 16.0875C3.17121 16.6779 4.07113 17.0005 4.9998 17M8.2278 9.85202L7.3048 9.46902M8.2278 12.148L7.3048 12.531M13.9998 11C13.9998 12.6569 12.6566 14 10.9998 14C9.34294 14 7.9998 12.6569 7.9998 11C7.9998 9.34317 9.34294 8.00002 10.9998 8.00002C12.6566 8.00002 13.9998 9.34317 13.9998 11Z" stroke="white" stroke-width="2" stroke-linecap="round" stroke-linejoin="round"/>
</svg>
